<svg id="visual" viewBox="0 0 900 600" width="900" height="600" xmlns="http://www.w3.org/2000/svg" xmlns:xlink="http://www.w3.org/1999/xlink" version="1.1"><path d="M0 247L13.7 237C27.3 227 54.7 207 82 200C109.3 193 136.7 199 163.8 208C191 217 218 229 245.2 213C272.3 197 299.7 153 327 156C354.3 159 381.7 209 409 221C436.3 233 463.7 207 491 192C518.3 177 545.7 173 573 167C600.3 161 627.7 153 654.8 164C682 175 709 205 736.2 203C763.3 201 790.7 167 818 160C845.3 153 872.7 173 886.3 183L900 193L900 0L886.3 0C872.7 0 845.3 0 818 0C790.7 0 763.3 0 736.2 0C709 0 682 0 654.8 0C627.7 0 600.3 0 573 0C545.7 0 518.3 0 491 0C463.7 0 436.3 0 409 0C381.7 0 354.3 0 327 0C299.7 0 272.3 0 245.2 0C218 0 191 0 163.8 0C136.7 0 109.3 0 82 0C54.7 0 27.3 0 13.7 0L0 0Z" fill="#4a4a4a"></path><path d="M0 379L13.7 354C27.3 329 54.7 279 82 272C109.3 265 136.7 301 163.8 311C191 321 218 305 245.2 282C272.3 259 299.7 229 327 237C354.3 245 381.7 291 409 297C436.3 303 463.7 269 491 258C518.3 247 545.7 259 573 261C600.3 263 627.7 255 654.8 269C682 283 709 319 736.2 308C763.3 297 790.7 239 818 219C845.3 199 872.7 217 886.3 226L900 235L900 191L886.3 181C872.7 171 845.3 151 818 158C790.7 165 763.3 199 736.2 201C709 203 682 173 654.8 162C627.7 151 600.3 159 573 165C545.7 171 518.3 175 491 190C463.7 205 436.3 231 409 219C381.7 207 354.3 157 327 154C299.7 151 272.3 195 245.2 211C218 227 191 215 163.8 206C136.7 197 109.3 191 82 198C54.7 205 27.3 225 13.7 235L0 245Z" fill="#383838"></path><path d="M0 427L13.7 409C27.3 391 54.7 355 82 346C109.3 337 136.7 355 163.8 360C191 365 218 357 245.2 341C272.3 325 299.7 301 327 309C354.3 317 381.7 357 409 360C436.3 363 463.7 329 491 321C518.3 313 545.7 331 573 340C600.3 349 627.7 349 654.8 364C682 379 709 409 736.2 395C763.3 381 790.7 323 818 305C845.3 287 872.7 309 886.3 320L900 331L900 233L886.3 224C872.7 215 845.3 197 818 217C790.7 237 763.3 295 736.2 306C709 317 682 281 654.8 267C627.7 253 600.3 261 573 259C545.7 257 518.3 245 491 256C463.7 267 436.3 301 409 295C381.7 289 354.3 243 327 235C299.7 227 272.3 257 245.2 280C218 303 191 319 163.8 309C136.7 299 109.3 263 82 270C54.7 277 27.3 327 13.7 352L0 377Z" fill="#272727"></path><path d="M0 547L13.7 545C27.3 543 54.7 539 82 532C109.3 525 136.7 515 163.8 505C191 495 218 485 245.2 475C272.3 465 299.7 455 327 466C354.3 477 381.7 509 409 512C436.3 515 463.7 489 491 490C518.3 491 545.7 519 573 524C600.3 529 627.7 511 654.8 509C682 507 709 521 736.2 515C763.3 509 790.7 483 818 485C845.3 487 872.7 517 886.3 532L900 547L900 329L886.3 318C872.7 307 845.3 285 818 303C790.7 321 763.3 379 736.2 393C709 407 682 377 654.8 362C627.7 347 600.3 347 573 338C545.7 329 518.3 311 491 319C463.7 327 436.3 361 409 358C381.7 355 354.3 315 327 307C299.7 299 272.3 323 245.2 339C218 355 191 363 163.8 358C136.7 353 109.3 335 82 344C54.7 353 27.3 389 13.7 407L0 425Z" fill="#222222"></path><path d="M0 601L13.7 601C27.3 601 54.7 601 82 601C109.3 601 136.7 601 163.8 601C191 601 218 601 245.2 601C272.3 601 299.7 601 327 601C354.3 601 381.7 601 409 601C436.3 601 463.7 601 491 601C518.3 601 545.7 601 573 601C600.3 601 627.7 601 654.8 601C682 601 709 601 736.2 601C763.3 601 790.7 601 818 601C845.3 601 872.7 601 886.3 601L900 601L900 545L886.3 530C872.7 515 845.3 485 818 483C790.7 481 763.3 507 736.2 513C709 519 682 505 654.8 507C627.7 509 600.3 527 573 522C545.7 517 518.3 489 491 488C463.7 487 436.3 513 409 510C381.7 507 354.3 475 327 464C299.7 453 272.3 463 245.2 473C218 483 191 493 163.8 503C136.7 513 109.3 523 82 530C54.7 537 27.3 541 13.7 543L0 545Z" fill="#1e1e1e"></path></svg>