<svg id="visual" viewBox="0 0 960 540" width="960" height="540" xmlns="http://www.w3.org/2000/svg" xmlns:xlink="http://www.w3.org/1999/xlink" version="1.1"><path d="M0 33L14.5 33C29 33 58 33 87.2 36.7C116.3 40.3 145.7 47.7 174.8 49.5C204 51.3 233 47.7 262 49.5C291 51.3 320 58.7 349 62.3C378 66 407 66 436.2 60.5C465.3 55 494.7 44 523.8 37.7C553 31.3 582 29.7 611 34.2C640 38.7 669 49.3 698 51.2C727 53 756 46 785.2 48.8C814.3 51.7 843.7 64.3 872.8 67.8C902 71.3 931 65.7 945.5 62.8L960 60L960 0L945.5 0C931 0 902 0 872.8 0C843.7 0 814.3 0 785.2 0C756 0 727 0 698 0C669 0 640 0 611 0C582 0 553 0 523.8 0C494.7 0 465.3 0 436.2 0C407 0 378 0 349 0C320 0 291 0 262 0C233 0 204 0 174.8 0C145.7 0 116.3 0 87.2 0C58 0 29 0 14.5 0L0 0Z" fill="#ee8855"></path><path d="M0 120L14.5 116.3C29 112.7 58 105.3 87.2 106.2C116.3 107 145.7 116 174.8 112.5C204 109 233 93 262 91.2C291 89.3 320 101.7 349 111.5C378 121.3 407 128.7 436.2 127C465.3 125.3 494.7 114.7 523.8 109.3C553 104 582 104 611 108.5C640 113 669 122 698 117.5C727 113 756 95 785.2 93.2C814.3 91.3 843.7 105.7 872.8 117.3C902 129 931 138 945.5 142.5L960 147L960 58L945.5 60.8C931 63.7 902 69.3 872.8 65.8C843.7 62.3 814.3 49.7 785.2 46.8C756 44 727 51 698 49.2C669 47.3 640 36.7 611 32.2C582 27.7 553 29.3 523.8 35.7C494.7 42 465.3 53 436.2 58.5C407 64 378 64 349 60.3C320 56.7 291 49.3 262 47.5C233 45.7 204 49.3 174.8 47.5C145.7 45.7 116.3 38.3 87.2 34.7C58 31 29 31 14.5 31L0 31Z" fill="#eb8057"></path><path d="M0 201L14.5 204.5C29 208 58 215 87.2 222.2C116.3 229.3 145.7 236.7 174.8 235.8C204 235 233 226 262 225.2C291 224.3 320 231.7 349 228C378 224.3 407 209.7 436.2 204.2C465.3 198.7 494.7 202.3 523.8 202.3C553 202.3 582 198.7 611 203.2C640 207.7 669 220.3 698 224C727 227.7 756 222.3 785.2 214.3C814.3 206.3 843.7 195.7 872.8 193C902 190.3 931 195.7 945.5 198.3L960 201L960 145L945.5 140.5C931 136 902 127 872.8 115.3C843.7 103.7 814.3 89.3 785.2 91.2C756 93 727 111 698 115.5C669 120 640 111 611 106.5C582 102 553 102 523.8 107.3C494.7 112.7 465.3 123.3 436.2 125C407 126.7 378 119.3 349 109.5C320 99.7 291 87.3 262 89.2C233 91 204 107 174.8 110.5C145.7 114 116.3 105 87.2 104.2C58 103.3 29 110.7 14.5 114.3L0 118Z" fill="#e6785a"></path><path d="M0 314L14.5 314C29 314 58 314 87.2 321.2C116.3 328.3 145.7 342.7 174.8 349.8C204 357 233 357 262 363.3C291 369.7 320 382.3 349 388.7C378 395 407 395 436.2 383.3C465.3 371.7 494.7 348.3 523.8 340.3C553 332.3 582 339.7 611 347.8C640 356 669 365 698 359.5C727 354 756 334 785.2 340.2C814.3 346.3 843.7 378.7 872.8 394C902 409.3 931 407.7 945.5 406.8L960 406L960 199L945.5 196.3C931 193.7 902 188.3 872.8 191C843.7 193.7 814.3 204.3 785.2 212.3C756 220.3 727 225.7 698 222C669 218.3 640 205.7 611 201.2C582 196.7 553 200.3 523.8 200.3C494.7 200.3 465.3 196.7 436.2 202.2C407 207.7 378 222.3 349 226C320 229.7 291 222.3 262 223.2C233 224 204 233 174.8 233.8C145.7 234.7 116.3 227.3 87.2 220.2C58 213 29 206 14.5 202.5L0 199Z" fill="#e2705c"></path><path d="M0 374L14.5 371.2C29 368.3 58 362.7 87.2 364.3C116.3 366 145.7 375 174.8 387.7C204 400.3 233 416.7 262 426.7C291 436.7 320 440.3 349 441.2C378 442 407 440 436.2 429.2C465.3 418.3 494.7 398.7 523.8 392.5C553 386.3 582 393.7 611 402.7C640 411.7 669 422.3 698 413.3C727 404.3 756 375.7 785.2 379.3C814.3 383 843.7 419 872.8 437C902 455 931 455 945.5 455L960 455L960 404L945.5 404.8C931 405.7 902 407.3 872.8 392C843.7 376.7 814.3 344.3 785.2 338.2C756 332 727 352 698 357.5C669 363 640 354 611 345.8C582 337.7 553 330.3 523.8 338.3C494.7 346.3 465.3 369.7 436.2 381.3C407 393 378 393 349 386.7C320 380.3 291 367.7 262 361.3C233 355 204 355 174.8 347.8C145.7 340.7 116.3 326.3 87.2 319.2C58 312 29 312 14.5 312L0 312Z" fill="#dc695f"></path><path d="M0 541L14.5 541C29 541 58 541 87.2 541C116.3 541 145.7 541 174.8 541C204 541 233 541 262 541C291 541 320 541 349 541C378 541 407 541 436.2 541C465.3 541 494.7 541 523.8 541C553 541 582 541 611 541C640 541 669 541 698 541C727 541 756 541 785.2 541C814.3 541 843.7 541 872.8 541C902 541 931 541 945.5 541L960 541L960 453L945.5 453C931 453 902 453 872.8 435C843.7 417 814.3 381 785.2 377.3C756 373.7 727 402.3 698 411.3C669 420.3 640 409.7 611 400.7C582 391.7 553 384.3 523.8 390.5C494.7 396.7 465.3 416.3 436.2 427.2C407 438 378 440 349 439.2C320 438.3 291 434.7 262 424.7C233 414.7 204 398.3 174.8 385.7C145.7 373 116.3 364 87.2 362.3C58 360.7 29 366.3 14.5 369.2L0 372Z" fill="#d66262"></path></svg>